<svg xmlns="http://www.w3.org/2000/svg" width="26" height="16" viewBox="0 0 26 16"><path fill="#A0C4FC" fill-rule="evenodd" d="M4.77 9.88c.912 0 1.824.422 2.612 1.19-.938 1.324-1.568 3.058-1.69 4.93H0c.261-3.28 2.417-6.12 4.77-6.12zm16.46 0c2.353 0 4.509 2.84 4.77 6.12h-5.68c-.122-1.875-.753-3.613-1.695-4.938.787-.764 1.696-1.182 2.605-1.182zm-8.224 0c2.353 0 4.508 2.84 4.77 6.12h-9.54c.262-3.28 2.417-6.12 4.77-6.12zm7.216-3.335c-1.594 0-2.889-1.304-2.889-2.91 0-1.603 1.295-2.908 2.889-2.908 1.594 0 2.889 1.305 2.889 2.909 0 1.605-1.297 2.909-2.889 2.909zm-14.444 0c-1.594 0-2.889-1.304-2.889-2.91C2.89 2.033 4.184.728 5.778.728c1.594 0 2.889 1.305 2.889 2.909 0 1.605-1.297 2.909-2.889 2.909zM13 7.273c-1.992 0-3.61-1.633-3.61-3.637C9.39 1.631 11.007 0 13 0c1.992 0 3.611 1.63 3.611 3.636 0 2.004-1.62 3.637-3.61 3.637z"/></svg>