<svg xmlns="http://www.w3.org/2000/svg" width="18" height="17" viewBox="0 0 18 17">
  <path fill="#F6BB03" fill-rule="evenodd" d="M17.609018,11.7043075 C17.9636796,11.3639309 18.0887483,10.8640249 17.9359266,10.4000042 C17.7827445,9.93562815 17.3833898,9.60413401 16.8935675,9.53378477 L12.5352666,8.90952411 C12.3500063,8.88287667 12.1892553,8.76811503 12.1063567,8.60219031 L10.15752,4.70917717 C9.93837953,4.27180387 9.4946921,4 8.99982382,4 C8.50531598,4 8.06126812,4.27180387 7.84248804,4.70917717 L5.89365136,8.60219031 C5.81039239,8.76811503 5.65000173,8.88287667 5.46402064,8.90952411 L1.10608014,9.53378477 C0.616257868,9.60413401 0.217263564,9.93562815 0.0640814691,10.4000042 C-0.0887401975,10.8640249 0.0363284778,11.3639309 0.390629653,11.7043075 L3.54401824,14.7342989 C3.67845806,14.8636278 3.74009132,15.0498046 3.70837362,15.2317178 L2.96408885,19.5102305 C2.89813044,19.8868477 2.99796912,20.2531611 3.24558348,20.5423747 C3.62980021,20.9921834 4.30055758,21.1296842 4.83687512,20.8518402 L8.73454848,18.8316091 C8.89782257,18.7474032 9.10290636,18.7481138 9.26509917,18.8316091 L13.1634934,20.8518402 C13.3530787,20.9502581 13.5549187,21 13.7639672,21 C14.1445796,21 14.505729,20.8330094 14.7544246,20.5423747 C15.0016785,20.2531611 15.1015172,19.8864924 15.0359192,19.5102305 L14.291274,15.2317178 C14.2595563,15.0498046 14.3211896,14.8636278 14.4556294,14.7342989 L17.609018,11.7043075" transform="translate(0 -4)"/>
</svg>
