<svg xmlns="http://www.w3.org/2000/svg" width="18" height="17" viewBox="0 0 18 17"><path fill="#F6BB03" fill-rule="evenodd" d="M17.609 7.704c.355-.34.48-.84.327-1.304a1.279 1.279 0 0 0-1.042-.866l-4.359-.624a.57.57 0 0 1-.429-.308L10.158.71A1.285 1.285 0 0 0 9 0c-.495 0-.939.272-1.158.71L5.894 4.601a.57.57 0 0 1-.43.308l-4.358.624c-.49.07-.889.402-1.042.866-.153.464-.028.964.327 1.304l3.153 3.03c.134.13.196.316.164.498l-.744 4.278c-.066.377.034.743.282 1.032.384.45 1.055.588 1.59.31l3.899-2.02a.59.59 0 0 1 .53 0l3.898 2.02a1.303 1.303 0 0 0 1.59-.31c.249-.289.349-.656.283-1.032l-.745-4.278a.558.558 0 0 1 .165-.498l3.153-3.03"/></svg>