<svg xmlns="http://www.w3.org/2000/svg" width="26" height="16" viewBox="0 0 26 16">
  <path fill="#A0C4FC" fill-rule="evenodd" d="M4.76950256,13.8804219 C5.68238131,13.8804219 6.59381562,14.3017413 7.38247353,15.0695177 C6.44359507,16.3944107 5.81382429,18.1284363 5.69249231,20 L0,20 C0.26144154,16.7199758 2.41652871,13.8804219 4.76950256,13.8804219 Z M21.2304974,13.8799868 C23.5834713,13.8799868 25.7385585,16.7195407 26,19.999565 L20.3205075,19.999565 C20.1977311,18.1245193 19.5665159,16.3870117 18.6247486,15.0621187 C19.4119621,14.2978243 20.3205075,13.8799868 21.2304974,13.8799868 Z M13.0060666,13.8799868 C15.3590405,13.8799868 17.5141276,16.7195407 17.7755692,19.999565 L8.23656404,19.999565 C8.49800558,16.7195407 10.6530927,13.8799868 13.0060666,13.8799868 Z M20.2219975,10.5449018 C18.6283397,10.5449018 17.3331407,9.24063104 17.3331407,7.63581091 C17.3331407,6.03240846 18.6283397,4.72672 20.2219975,4.72672 C21.8156554,4.72672 23.1108543,6.03240846 23.1108543,7.63581091 C23.1108543,9.24063104 21.8142475,10.5449018 20.2219975,10.5449018 Z M5.77800247,10.5449018 C4.18434463,10.5449018 2.88914568,9.24063104 2.88914568,7.63581091 C2.88914568,6.03240846 4.18434463,4.72672 5.77800247,4.72672 C7.37166031,4.72672 8.66685926,6.03240846 8.66685926,7.63581091 C8.66685926,9.24063104 7.37025248,10.5449018 5.77800247,10.5449018 Z M13.0001444,11.2727273 C11.0084877,11.2727273 9.38907345,9.64036844 9.38907345,7.63636364 C9.38907345,5.63075691 11.0084877,4 13.0001444,4 C14.9918012,4 16.6112154,5.63075691 16.6112154,7.63636364 C16.6112154,9.64036844 14.9918012,11.2727273 13.0001444,11.2727273 Z" transform="translate(0 -4)"/>
</svg>
