<svg width="16" height="16" viewBox="0 0 16 16" xmlns="http://www.w3.org/2000/svg"><g fill="none" fill-rule="evenodd"><path d="M13.5 12h-11c-.276 0-.5.22-.5.5s.224.5.5.5h11c.276 0 .5-.22.5-.5s-.224-.5-.5-.5zm0-8h-4c-.276 0-.5.22-.5.5s.224.5.5.5h4c.276 0 .5-.22.5-.5s-.224-.5-.5-.5zm0-2h-4c-.276 0-.5.22-.5.5s.224.5.5.5h4c.276 0 .5-.22.5-.5s-.224-.5-.5-.5zM15 14.5c0 .28-.224.5-.5.5h-13c-.276 0-.5-.22-.5-.5v-13c0-.28.224-.5.5-.5h13c.276 0 .5.22.5.5v13zM15 0H1C.448 0 0 .45 0 1v14c0 .55.448 1 1 1h14c.552 0 1-.45 1-1V1c0-.55-.448-1-1-1zm-1.5 6h-4c-.276 0-.5.22-.5.5s.224.5.5.5h4c.276 0 .5-.22.5-.5s-.224-.5-.5-.5zm0 2h-11c-.276 0-.5.22-.5.5s.224.5.5.5h11c.276 0 .5-.22.5-.5s-.224-.5-.5-.5zm0 2h-11c-.276 0-.5.22-.5.5s.224.5.5.5h11c.276 0 .5-.22.5-.5s-.224-.5-.5-.5z" fill="#A8AEBA"/><path d="M3 7h4c.552 0 1-.45 1-1V3c0-.55-.448-1-1-1H3c-.552 0-1 .45-1 1v3c0 .55.448 1 1 1zm0-3.5c0-.28.224-.5.5-.5h3c.276 0 .5.22.5.5v2c0 .28-.224.5-.5.5h-3c-.276 0-.5-.22-.5-.5v-2z" fill="#268FF4"/></g></svg>