<svg xmlns="http://www.w3.org/2000/svg" width="18" height="18" viewBox="0 0 18 18"><g fill="none" fill-rule="evenodd"><rect width="18" height="18" fill="#FFC112" rx="9"/><rect width="15" height="15" x="1.5" y="1.5" fill="#21A465" rx="7.5"/><path fill="#57BB8A" d="M10.594 10.738c0-.042.017-.103.038-.135 0 0 .593-1.04 2.071-1.04 1.478 0 2.071 1.06 2.071 1.06.021.034.039.1.039.134v.868h-4.22v-.887zM12.75 9a1.031 1.031 0 1 1 0-2.063 1.031 1.031 0 0 1 0 2.063zm-9.563 1.738c0-.042.017-.103.039-.135 0 0 .593-1.04 2.07-1.04 1.479 0 2.072 1.06 2.072 1.06.021.034.038.1.038.134v.868H3.188v-.887zM5.345 9a1.031 1.031 0 1 1 0-2.062 1.031 1.031 0 0 1 0 2.062z"/><path fill="#FFF" d="M6 10.499c0-.053.025-.13.056-.171 0 0 .87-1.322 3.038-1.322 2.167 0 3.038 1.347 3.038 1.347a.37.37 0 0 1 .056.17v1.102H6v-1.126zm3-2.437a1.313 1.313 0 1 1 0-2.625 1.313 1.313 0 0 1 0 2.625z"/></g></svg>