<svg xmlns="http://www.w3.org/2000/svg" width="46" height="46" viewBox="0 0 46 46"><defs><linearGradient id="a" x1="0%" y1="100%" y2="0%"><stop offset="0%" stop-color="#33B1F8"/><stop offset="36.957%" stop-color="#49A5F7"/><stop offset="100%" stop-color="#6E90F6"/></linearGradient></defs><g fill="none" fill-rule="evenodd"><path fill="url(#a)" d="M23 0c20.06 0 23 2.94 23 23 0 20.058-3.106 23-23 23S0 43.06 0 23C0 2.937 2.94 0 23 0"/><path fill="#FFF" d="M34.373 23.562c.635.42.818 1.289.409 1.94l-6.19 9.854c-.41.652-1.257.84-1.892.42a1.426 1.426 0 0 1-.409-1.941l6.19-9.854a1.347 1.347 0 0 1 1.892-.42zm-2.787-4.884c.635.42.818 1.29.408 1.941l-9.258 14.737c-.41.652-1.256.84-1.891.42a1.426 1.426 0 0 1-.409-1.941l9.258-14.738a1.347 1.347 0 0 1 1.892-.419zm-.552-8.454c.635.42.819 1.29.41 1.941l-14.57 23.191c-.41.652-1.256.84-1.89.42a1.426 1.426 0 0 1-.41-1.941l14.569-23.191a1.347 1.347 0 0 1 1.891-.42zM16.285 26.962c-.409.652-1.256.84-1.89.42a1.426 1.426 0 0 1-.41-1.942l9.296-14.796a1.347 1.347 0 0 1 1.891-.42c.635.42.818 1.29.409 1.941l-9.296 14.797zM19.3 10.224c.635.42.818 1.29.409 1.941l-6.19 9.854c-.41.652-1.257.84-1.892.42a1.426 1.426 0 0 1-.409-1.942l6.19-9.853a1.347 1.347 0 0 1 1.892-.42z"/></g></svg>