<svg xmlns="http://www.w3.org/2000/svg" width="256" height="256"><path d="M74.25 230.654L6 218.516l.003-91.008.002-91.008 67.748-11.927c37.26-6.56 68.534-12.125 69.497-12.367 1.591-.4 1.75.613 1.75 11.177V35h38.953c26.418 0 39.737.357 41.39 1.11 2.925 1.333 4.657 4.791 4.657 9.298v3.314l5.873.533c6.909.626 10.36 2.61 12.54 7.205 2.337 4.923 2.315 40.203-.027 45.139-1.485 3.13-1.485 3.672 0 6.802 2.232 4.704 2.366 40.634.167 44.849-1.246 2.389-1.246 3.111 0 5.5 2.179 4.176 2.067 40.142-.14 44.79-2.168 4.57-5.626 6.578-12.384 7.191-5.35.485-5.792.726-6.881 3.737-.64 1.77-2.307 3.739-3.703 4.375-1.783.813-14.132 1.157-41.492 1.157H145v11.5c0 8.589-.316 11.474-1.25 11.396-.688-.057-31.962-5.566-69.5-12.242zM222 156.5V101h8.171c12.19 0 11.829.665 11.829-21.826 0-22.82.34-22.174-11.655-22.174H222V43h-77v17h60v10h-60v15h60v10h-60v15h60v10h-60v15h60v10h-60v15h60v10h-60v15h60v10h-60v17h77zm18.171 44.845c1.646-1.49 1.829-3.503 1.829-20.171 0-21.393-.27-22.174-7.655-22.174H230v44h4.171c2.478 0 4.914-.672 6-1.655zM100 127.365V85.727L86.032 87l-.266 27.022-.266 27.022-13.5-26.03-13.5-26.031-15 .517v76l12.5.595.006-26.797.007-26.798L70.376 140l14.363 27.5L100 169zm140.171 23.98c1.646-1.49 1.829-3.503 1.829-20.171 0-21.393-.27-22.174-7.655-22.174H230v44h4.171c2.478 0 4.914-.672 6-1.655z" fill="#7e3779"/></svg>