<svg width="58" height="58" viewBox="0 0 58 58" xmlns="http://www.w3.org/2000/svg"><title>28 - Guitar (sound, audio, play, music, flat)</title><g fill="none" fill-rule="evenodd"><path d="M37.234 24.573l-.021-.021-11.676 11.373a7.516 7.516 0 0 0-4.04-4.298l11.519-11.219-.315-.311a12.867 12.867 0 0 0-1.575-.969c-2.419-1.245-6.283-2.592-8.995-.403 0 0-1.984 1.128-3.91 4.833-1.581 3.041-5.12 3.425-6.339 3.465-.349.012-.685.05-1.026.126-1.743.388-6.783 1.73-8.881 4.618l-.076.106c-3.405 4.77-1.961 12.049 2.182 16.194.869.869 1.972 1.98 3.333 3.366a584.546 584.546 0 0 1 3.367 3.333c4.145 4.143 10.031 4.194 14.801.789l.106-.076c2.888-2.098 4.229-7.138 4.618-8.88a5.46 5.46 0 0 0 .125-1.027c.04-1.218.424-4.757 3.465-6.338 3.705-1.927 4.833-3.911 4.833-3.911 2.189-2.711.842-6.576-.402-8.995-.317-.616-.685-1.2-1.093-1.755" fill="#C27037"/><path d="M26.141 38.484a7.5 7.5 0 1 1-15 0 7.5 7.5 0 0 1 15 0" fill="#42241E"/><path d="M35.069 18.409l-2.151 2.094 4.161 4.162.007.011 2.152-2.095-4.161-4.161c-.004-.003-.005-.008-.008-.011M31.487 21.897l-2.151 2.096 4.161 4.161.007.011 2.152-2.095-4.161-4.162c-.004-.003-.004-.008-.008-.011M24.323 28.875l-2.826 2.752a7.516 7.516 0 0 1 4.04 4.298l2.954-2.878-4.161-4.16-.007-.012M27.905 25.386l-2.152 2.096 4.162 4.161.007.011 2.151-2.095-4.161-4.161-.007-.012M57.427 6.835L50.986.393a1.345 1.345 0 0 0-1.9 0L48.74.74 49 1v2l-1 1h-2l-.26-.26-1 1L45 5v2l-1 1h-2l-.26-.26-.485.485c-.525.525-.01 1.759.44 2.34 0 0 .525.865 0 1.39l-1.613 1.571 4.161 4.162.007.01 1.616-1.573c.524-.524.865-.524 1.39 0 0 0 1.815.965 2.34.441l.485-.485L50 16v-2l1-1h2l.081.081 1-1L54 12v-2l1-1h2l.081.081.346-.347a1.342 1.342 0 0 0 0-1.899M38.651 14.92L36.5 17.015l4.161 4.161c.003.003.004.008.008.011l2.151-2.095-4.161-4.161c-.004-.004-.004-.008-.008-.011" fill="#9B431C"/><path d="M29.336 23.993l-1.431 1.393.007.012 4.161 4.161 1.431-1.394-.007-.011-4.161-4.161M25.753 27.482l-1.43 1.393.007.012 4.161 4.16 1.431-1.393-.007-.011-4.162-4.161M36.5 17.015l-1.431 1.394c.003.003.004.008.008.011l4.161 4.161 1.431-1.394c-.004-.003-.005-.008-.008-.011L36.5 17.015M32.918 20.503l-1.431 1.394c.004.003.004.008.008.011l4.161 4.162 1.43-1.394-.007-.011-4.161-4.162M44.243 17.688l-4.161-4.162-1.431 1.394c.004.003.004.007.008.011l4.161 4.161 1.43-1.394-.007-.01" fill="#633B2B"/><path fill="#E4C05C" d="M46 4l-1-1V1l1-1h2l1 1v2l-1 1h-2M42 8l-1-1V5l1-1h2l1 1v2l-1 1h-2M51 17l-1-1v-2l1-1h2l1 1v2l-1 1h-2M55 13l-1-1v-2l1-1h2l1 1v2l-1 1h-2"/><path d="M15 50.071a.993.993 0 0 1-.707-.293l-7.071-7.071a.999.999 0 1 1 1.414-1.414l7.071 7.071A.999.999 0 0 1 15 50.071" fill="#42241E"/><path d="M7.929 45.828a.999.999 0 0 1-.707-1.707l11.071-11.07a.999.999 0 1 1 1.414 1.414L8.636 45.535a.995.995 0 0 1-.707.293M10.05 47.95a.999.999 0 0 1-.707-1.707l11.95-11.95a.999.999 0 1 1 1.414 1.414l-11.95 11.95a.997.997 0 0 1-.707.293M12.171 50.071a1 1 0 0 1-.707-1.707l11.072-11.071a.999.999 0 1 1 1.414 1.414L12.878 49.778a.993.993 0 0 1-.707.293" fill="#E4C05C"/></g></svg>