<svg width="64" height="64" viewBox="0 0 64 64" xmlns="http://www.w3.org/2000/svg"><title>Group</title><g fill="none" fill-rule="evenodd"><path d="M50 2H14C7.373 2 2 7.373 2 14v36c0 6.627 5.373 12 12 12h36c6.627 0 12-5.373 12-12V14c0-6.627-5.373-12-12-12zm10 48c0 5.523-4.477 10-10 10H14C8.477 60 4 55.523 4 50V14C4 8.477 8.477 4 14 4h36c5.523 0 10 4.477 10 10v36z" fill="#EDD87E"/><path d="M60 19.73v2.827l2-2V17.73l-2 2zM60 25.385v2.828l2-2v-2.828l-2 2zM60 42.355v2.83l2-2v-2.83l-2 2zM60 36.697v2.83l2-2v-2.83l-2 2zM60 31.04v2.83l2-2v-2.83l-2 2zM36.13 4h2.83l2-2h-2.83l-2 2zM58.895 9.52c.328.65.593 1.332.775 2.052l1.617-1.617c-.242-.674-.54-1.322-.892-1.935l-1.5 1.5zM41.787 4h2.828l2-2h-2.828l-2 2zM52.688 4.412c.708.2 1.38.473 2.015.815l1.49-1.49c-.6-.364-1.234-.676-1.898-.932l-1.607 1.607zM6.367 56.39l-1.443 1.444c.435.506.908.98 1.422 1.406l1.45-1.45c-.523-.42-1-.886-1.43-1.4zM30.473 4h2.83l2-2h-2.83l-2 2zM4 50v-2.557l-2 2V50c0 .71.074 1.402.19 2.08l1.835-1.834C4.023 50.162 4 50.084 4 50zM14.07 60l-1.853 1.854C12.8 61.94 13.393 62 14 62h.898l2-2H14.07zM5.047 9.627c.976-1.994 2.586-3.604 4.58-4.58l2.955-2.955c-1.455.17-2.828.603-4.076 1.248L3.34 8.506c-.645 1.248-1.078 2.62-1.248 4.076l2.955-2.955zM50 4c.084 0 .162.023.246.025L52.08 2.19C51.402 2.075 50.71 2 50 2h-.557l-2 2H50zM60 16.9l2-2V14c0-.607-.06-1.2-.146-1.78L60 14.07V16.9zM60 48.012V50c0 .32-.064.623-.094.936L62 48.842v-2.83l-2 2zM57.79 7.797l1.45-1.45c-.426-.515-.9-.988-1.406-1.423L56.39 6.367c.514.43.98.906 1.4 1.43zM22.557 60H19.73l-2 2h2.827l2-2zM33.87 60h-2.83l-2 2h2.83l2-2zM39.527 60H36.7l-2 2h2.827l2-2zM5.227 54.703c-.342-.635-.616-1.307-.815-2.015l-1.607 1.607c.256.664.568 1.297.93 1.898l1.492-1.49zM11.572 59.67c-.72-.182-1.402-.447-2.052-.775l-1.5 1.5c.613.353 1.26.65 1.935.892l1.617-1.617zM28.213 60h-2.828l-2 2h2.828l2-2zM45.184 60h-2.83l-2 2h2.83l2-2zM60.2 56.297c.83-1.34 1.4-2.852 1.648-4.475l-3.3 3.3c-.847 1.41-2.017 2.58-3.425 3.425l-3.3 3.3c1.622-.247 3.134-.818 4.474-1.646l3.904-3.903zM50.936 59.906c-.313.03-.616.094-.936.094h-1.988l-2 2h2.828l2.096-2.094zM4 44.615v-2.828l-2 2v2.828l2-2zM4 21.988V19.16l-2 2v2.828l2-2zM4 16.33V14c0-.19.045-.367.057-.555L2 15.502v2.828l2-2zM13.445 4.057C13.633 4.045 13.81 4 14 4h2.33l2-2h-2.828l-2.057 2.057zM24.816 4h2.83l2-2h-2.83l-2 2zM19.158 4h2.83l2-2h-2.83l-2 2zM4 38.96v-2.83l-2 2v2.83l2-2zM4 33.3v-2.827l-2 2V35.3l2-2zM4 27.645v-2.83l-2 2v2.83l2-2z" fill-opacity=".1" fill="#000"/><path d="M32 2C15.432 2 2 15.432 2 32c0 16.568 13.432 30 30 30 16.568 0 30-13.432 30-30C62 15.432 48.568 2 32 2zm0 46c-8.836 0-16-7.164-16-16s7.164-16 16-16 16 7.164 16 16-7.164 16-16 16z" fill="#EF4D4D"/><path d="M20.686 20.686c1.058-1.06 2.232-1.922 3.474-2.622L16.648 6.258c-2.085 1.246-4.066 2.732-5.863 4.527-1.793 1.797-3.28 3.778-4.527 5.863l11.806 7.512c.7-1.242 1.565-2.418 2.622-3.474zM45.934 24.156l11.808-7.51c-1.246-2.087-2.734-4.068-4.527-5.863-1.797-1.795-3.777-3.283-5.863-4.527L39.838 18.06c1.244.702 2.42 1.565 3.478 2.624 1.055 1.058 1.918 2.234 2.618 3.472zM45.94 39.836c-.702 1.242-1.565 2.418-2.624 3.48-1.058 1.05-2.234 1.914-3.472 2.616l7.51 11.806c2.084-1.246 4.066-2.734 5.865-4.527 1.792-1.796 3.28-3.776 4.524-5.86L45.94 39.836zM18.07 39.84L6.262 47.352c1.246 2.084 2.734 4.064 4.527 5.863 1.796 1.793 3.776 3.28 5.86 4.527l7.514-11.804c-1.242-.704-2.418-1.565-3.48-2.622-1.05-1.062-1.914-2.234-2.614-3.476z" fill="#EAEAEA"/><path d="M61.898 30C60.865 45.63 47.893 58 32 58 16.107 58 3.135 45.63 2.102 30 2.057 30.664 2 31.324 2 32c0 16.568 13.432 30 30 30 16.568 0 30-13.432 30-30 0-.676-.057-1.336-.102-2zM32 16c6.64 0 12.332 4.045 14.754 9.805-1.065-7.203-7.256-12.74-14.754-12.74-7.498 0-13.69 5.537-14.754 12.74C19.668 20.045 25.36 16 32 16z" fill-opacity=".15" fill="#000"/><path d="M16 30H2c-1.105 0-2 .895-2 2s.895 2 2 2h14c1.105 0 2-.895 2-2s-.895-2-2-2zM62 30H48c-1.105 0-2 .895-2 2s.895 2 2 2h14c1.105 0 2-.895 2-2s-.895-2-2-2zM32 0c-1.105 0-2 .895-2 2v14c0 1.105.895 2 2 2s2-.895 2-2V2c0-1.105-.895-2-2-2zM32 46c-1.105 0-2 .895-2 2v14c0 1.105.895 2 2 2s2-.895 2-2V48c0-1.105-.895-2-2-2z" fill="#434854"/></g></svg>