<svg xmlns="http://www.w3.org/2000/svg" width="59" height="59" viewBox="0 0 59 59"><g fill="none"><path fill="#ECF0F1" d="M43.038 59H16.961a2.962 2.962 0 0 1-2.96-2.962V3.962A2.962 2.962 0 0 1 16.96 1h26.077A2.962 2.962 0 0 1 46 3.962v52.076A2.962 2.962 0 0 1 43.038 59"/><path fill="#38454F" d="M14 51h32V7H14z"/><path fill="#6E90F6" d="M3.997 5c.38.285.718.624 1.003 1.003A5.043 5.043 0 0 1 6.003 5 5.043 5.043 0 0 1 5 3.997 5.043 5.043 0 0 1 3.997 5M5 10a1 1 0 0 1-1-1c0-1.654-1.346-3-3-3a1 1 0 1 1 0-2c1.654 0 3-1.346 3-3a1 1 0 1 1 2 0c0 1.654 1.346 3 3 3a1 1 0 1 1 0 2C7.346 6 6 7.346 6 9a1 1 0 0 1-1 1m49 10a1 1 0 0 1-1-1v-4a1 1 0 1 1 2 0v4a1 1 0 0 1-1 1"/><path fill="#6E90F6" d="M56 18h-4a1 1 0 1 1 0-2h4a1 1 0 1 1 0 2M8 44a1 1 0 1 1-2 0 1 1 0 0 1 2 0M3 26a1 1 0 1 1-2 0 1 1 0 0 1 2 0m56 31a1 1 0 1 1-2 0 1 1 0 0 1 2 0"/><path fill="#546A79" d="M34 5h-5a1 1 0 1 1 0-2h5a1 1 0 1 1 0 2m-8 0h-1a1 1 0 1 1 0-2h1a1 1 0 1 1 0 2"/><path fill="#BDC3C7" d="M13 12a1 1 0 0 1-1-1v-1a1 1 0 1 1 2 0v1a1 1 0 0 1-1 1m0 4a1 1 0 0 1-1-1v-1a1 1 0 1 1 2 0v1a1 1 0 0 1-1 1m0 4a1 1 0 0 1-1-1v-1a1 1 0 1 1 2 0v1a1 1 0 0 1-1 1m20 35a3 3 0 1 1-6 0 3 3 0 0 1 6 0"/><path fill="#33B1F8" d="M26 35a1 1 0 0 1-1-1v-9a1 1 0 1 1 2 0v9a1 1 0 0 1-1 1"/><path fill="#33B1F8" d="M23 34c-1.103 0-2 .978-2 2.18 0 1.258 1.004 1.82 2 1.82 1.159 0 2-.841 2-2v-2h-2zm0 6c-2.318 0-4-1.606-4-3.82 0-2.305 1.794-4.18 4-4.18h3a1 1 0 0 1 1 1v3c0 2.243-1.757 4-4 4zm17-8a1 1 0 0 1-1-1v-9a1 1 0 1 1 2 0v9a1 1 0 0 1-1 1"/><path fill="#33B1F8" d="M37 31c-1.103 0-2 .978-2 2.18 0 1.258 1.004 1.82 2 1.82 1.159 0 2-.841 2-2v-2h-2zm0 6c-2.318 0-4-1.606-4-3.82 0-2.305 1.794-4.18 4-4.18h3a1 1 0 0 1 1 1v3c0 2.243-1.757 4-4 4zm3-15h.01H40zm-13-1.191v2.954l12-2.572v-2.954l-12 2.572zM26 26a.997.997 0 0 1-1-1v-5a1 1 0 0 1 .791-.978l14-3a.988.988 0 0 1 .838.201A.997.997 0 0 1 41 17v5a1 1 0 0 1-.791.978l-14 3A.983.983 0 0 1 26 26z"/><path fill="#6E90F6" d="M52 36a1 1 0 1 1-2 0 1 1 0 0 1 2 0"/></g></svg>