<svg xmlns="http://www.w3.org/2000/svg" width="40" height="52" viewBox="0 0 40 52"><g fill="none"><path fill="#4D69DC" d="M2 3.002l5 10c1.333-.992 2.05-2.673 3.767-2.902L6.429.596M15 10.002h10V8.815a2.816 2.816 0 0 0-2.813-2.813h-4.374A2.816 2.816 0 0 0 15 8.815v1.187zm11 2H14a1 1 0 0 1-1-1V8.815a4.818 4.818 0 0 1 4.813-4.813h4.374A4.818 4.818 0 0 1 27 8.815v2.187a1 1 0 0 1-1 1z"/><path fill="#6DD4E8" d="M31.992 52.002H8.529c-5.03 0-8.966-4.33-8.49-9.336l2.249-23.612a10.001 10.001 0 0 1 9.955-9.052h15.874a10 10 0 0 1 9.949 8.987L40 43.002c.353 4.936-3.06 9-8.008 9"/><path fill="#4D69DC" d="M33.999 46.002a1 1 0 0 1-.994-.905l-2-21C31 20.143 27.859 17.002 24 17.002h-8c-3.859 0-7 3.141-7 7L6.995 45.097c-.053.549-.533.967-1.09.9a.998.998 0 0 1-.9-1.09l2-21C7 19.039 11.037 15.002 16 15.002h8c4.963 0 9 4.037 9 9l1.995 20.905a.998.998 0 0 1-.996 1.095"/><path fill="#4D69DC" d="M27 37.002H13a1 1 0 1 1 0-2h14a1 1 0 1 1 0 2"/><path fill="#4D69DC" d="M24 42.002a1 1 0 0 1-1-1v-5a1 1 0 1 1 2 0v5a1 1 0 0 1-1 1M33.42.587l-4.166 9.508a9.963 9.963 0 0 1 4.644 1.86L38 2.595M20 20.002l1.971 4H26l-3 4.036.943 3.964-3.943-2-3.943 2L17 28.038l-3-4.036h4.029z"/><path fill="#4D69DC" d="M26 44.002c0 1.657-.895 3-2 3s-2-1.343-2-3 .895-3 2-3 2 1.343 2 3"/></g></svg>