<svg xmlns="http://www.w3.org/2000/svg" width="58" height="57" viewBox="0 0 58 57">
  <g fill="none">
    <path fill="#33B1F8" d="M33.224,10 L13.776,10 C6.168,10 0,16.168 0,23.776 L0,35.121 C0,42.729 6.392,49 14,49 L14,56.446 C14,56.949 14.384,57.201 14.74,56.846 L16.261,55.325 C20.377,51.209 25.96,49 31.781,49 L33.224,49 C40.832,49 47,42.729 47,35.121 L47,23.776 C47,16.168 40.832,10 33.224,10"/>
    <path fill="#8AC8EB" d="M44.224,0 L24.776,0 C18.405,0 13.059,4.331 11.484,10.206 C12.231,10.081 12.993,10 13.776,10 L33.224,10 C40.832,10 47,16.167 47,23.776 L47,35.121 C47,36.379 46.817,37.596 46.5,38.76 C52.957,37.567 58,31.876 58,25.121 L58,13.776 C58,6.167 51.832,0 44.224,0"/>
    <path fill="#FFF" d="M15 30C15 31.657 13.657 33 12 33 10.343 33 9 31.657 9 30 9 28.343 10.343 27 12 27 13.657 27 15 28.343 15 30M27 30C27 31.657 25.657 33 24 33 22.343 33 21 31.657 21 30 21 28.343 22.343 27 24 27 25.657 27 27 28.343 27 30M39 30C39 31.657 37.657 33 36 33 34.343 33 33 31.657 33 30 33 28.343 34.343 27 36 27 37.657 27 39 28.343 39 30"/>
  </g>
</svg>
