<svg xmlns="http://www.w3.org/2000/svg" width="58" height="44" viewBox="0 0 58 44">
  <g fill="none">
    <path fill="#33B1F8" d="M58,14 L58,42 C58,43.1045695 57.1045695,44 56,44 L2,44 C0.8954305,44 2.22044605e-16,43.1045695 0,42 L0,2 C-1.11022302e-16,0.8954305 0.8954305,0 2,0 L56,0 C57.1045695,0 58,0.8954305 58,2 L58,14 Z"/>
    <path fill="#8FCCEF" d="M57.5,0.69 L30.93,23.38 C29.8150582,24.3201121 28.1849418,24.3201121 27.07,23.38 L0.5,0.69 C0.875345447,0.252118378 1.42326391,7.58840314e-05 2,0 L56,0 C56.5767361,7.58840314e-05 57.1246546,0.252118378 57.5,0.69 Z"/>
    <path fill="#369BD4" d="M57.29,43.52 C56.9314681,43.8295081 56.4736458,43.9998606 56,44 L2,44 C1.52635423,43.9998606 1.06853186,43.8295081 0.71,43.52 L22.86,19.79 L27.07,23.38 C28.1849418,24.3201121 29.8150582,24.3201121 30.93,23.38 L35.13,19.79 L57.29,43.52 Z"/>
  </g>
</svg>
