<svg xmlns="http://www.w3.org/2000/svg" width="30" height="30" viewBox="0 0 30 30"><defs><linearGradient id="a" x1="50%" x2="50%" y1="0%" y2="100%"><stop offset="0%" stop-color="#33425F"/><stop offset="100%" stop-color="#212B3E"/></linearGradient></defs><g fill="none" fill-rule="evenodd"><rect width="30" height="30" fill="url(#a)" fill-rule="nonzero" rx="15"/><path fill="#F5A623" d="M8 7.5v3a.5.5 0 0 0 .5.5h2a.5.5 0 0 0 .5-.5v-3a.5.5 0 0 0-.5-.5h-2a.5.5 0 0 0-.5.5zm11 12v3a.5.5 0 0 0 .5.5h2a.5.5 0 0 0 .5-.5v-3a.5.5 0 0 0-.5-.5h-2a.5.5 0 0 0-.5.5zM9 8h1v2H9V8zm11 12h1v2h-1v-2z"/><path fill="#FFF" d="M21 15.42v-4.785a4.164 4.164 0 0 0-.387-1.778C20.079 7.707 19.054 7 17.5 7s-2.579.707-3.113 1.858c-.3.646-.394 1.29-.387 1.779v8.727a3.496 3.496 0 0 1-.042.417c-.048.33-.131.66-.254.962-.33.81-.862 1.259-1.703 1.257-.842-.002-1.375-.448-1.704-1.248a4.13 4.13 0 0 1-.255-.955 3.581 3.581 0 0 1-.042-.422V14.58a2.303 2.303 0 0 0 2-2.28v-1.071c0-.675-.555-1.229-1.234-1.229H8.234A1.23 1.23 0 0 0 7 11.229V12.3c0 1.173.87 2.134 2 2.28v4.804c.002.127.016.318.053.56.06.403.162.806.319 1.188.47 1.143 1.332 1.865 2.627 1.868 1.298.003 2.162-.725 2.631-1.88.156-.384.258-.789.318-1.193a4.58 4.58 0 0 0 .052-.554v-8.737c-.005-.366.07-.872.295-1.357C15.67 8.469 16.35 8 17.5 8c1.15 0 1.83.47 2.205 1.279.226.485.3.991.295 1.343v4.798a2.303 2.303 0 0 0-2 2.28v1.072c0 .674.555 1.228 1.234 1.228h2.532A1.23 1.23 0 0 0 23 18.772V17.7c0-1.173-.87-2.134-2-2.28zm-.699.98h.398c.721 0 1.301.578 1.301 1.3v1.072a.23.23 0 0 1-.234.228h-2.532a.235.235 0 0 1-.234-.228V17.7c0-.717.584-1.3 1.301-1.3zM8.234 11h2.532c.127 0 .234.106.234.229V12.3c0 .717-.584 1.3-1.301 1.3H9.3A1.296 1.296 0 0 1 8 12.3v-1.071A.23.23 0 0 1 8.234 11z"/></g></svg>