<svg xmlns="http://www.w3.org/2000/svg" width="23" height="24" viewBox="0 0 23 24"><path fill="#4DA3F8" fill-rule="evenodd" d="M21.998 12.519a1.3 1.3 0 0 1 .385 1.792l-5.826 9.096a1.282 1.282 0 0 1-1.78.387 1.3 1.3 0 0 1-.385-1.792l5.826-9.097a1.282 1.282 0 0 1 1.78-.386zm-2.623-4.508c.598.388.77 1.19.385 1.792l-8.714 13.604a1.283 1.283 0 0 1-1.78.387 1.3 1.3 0 0 1-.384-1.792l8.713-13.604a1.283 1.283 0 0 1 1.78-.387zM18.857.207c.597.388.77 1.19.384 1.792L5.53 23.406a1.282 1.282 0 0 1-1.78.387A1.3 1.3 0 0 1 3.366 22L17.076.595a1.283 1.283 0 0 1 1.78-.388zM4.974 15.658a1.282 1.282 0 0 1-1.78.387 1.3 1.3 0 0 1-.384-1.792L11.558.595a1.282 1.282 0 0 1 1.78-.388A1.3 1.3 0 0 1 13.722 2L4.975 15.657v.001zM7.812.208c.598.387.77 1.189.384 1.791L2.37 11.096a1.283 1.283 0 0 1-1.78.386A1.3 1.3 0 0 1 .206 9.69L6.032.594a1.282 1.282 0 0 1 1.78-.386z"/></svg>