<svg xmlns="http://www.w3.org/2000/svg" width="30" height="30" viewBox="0 0 30 30"><defs><linearGradient id="a" x1="50%" x2="50%" y1="0%" y2="100%"><stop offset="0%" stop-color="#33425F"/><stop offset="100%" stop-color="#212B3E"/></linearGradient></defs><g fill="none" fill-rule="evenodd"><rect width="30" height="30" fill="url(#a)" rx="15"/><path fill="#FFF" d="M18.249 10l-.755.75.755.75.753-.75-.753-.75zm.245 8.25l.755.75.753-.75-.753-.76-.755.76zM20 15h1v-1h-1v1zm-8.182-3.89l-.707-.71-.707.71.707.71.707-.71zM15 22c-3.866 0-7-3.13-7-7s3.134-7 7-7 7 3.13 7 7-3.134 7-7 7zm0-15a8 8 0 0 0-8 8 8 8 0 0 0 8 8 8 8 0 0 0 8-8 8 8 0 0 0-8-8zm0 14h1v-1h-1v1zm0-6h-5v1h6V9h-1v6zm-4.596 3.891l.707.699.707-.699-.707-.711-.707.711z"/></g></svg>