<svg xmlns="http://www.w3.org/2000/svg" width="24" height="23" viewBox="0 0 24 23"><path fill="#268FF4" fill-rule="evenodd" d="M12 0C8.739 0 6.02 2.385 5.388 5.565 2.313 6.21 0 9.015 0 12.39c0 3.585 2.63 6.495 6 6.885V17.73c-2.541-.39-4.5-2.61-4.5-5.34 0-3 2.35-5.43 5.25-5.43 0-2.985 2.35-5.415 5.25-5.415 2.653 0 4.824 2.04 5.178 4.68C20.14 6.39 22.5 8.895 22.5 12a5.753 5.753 0 0 1-3 5.085v1.74c2.633-1.08 4.5-3.72 4.5-6.825 0-3.525-2.404-6.465-5.611-7.185C17.508 2.025 14.997 0 12 0zm4.75 16.47l-3.25 3.36V9.285a.76.76 0 0 0-.75-.765.76.76 0 0 0-.75.765V19.83l-3.25-3.36a.733.733 0 0 0-1.035 0 .786.786 0 0 0 0 1.08l4.43 4.575c.024.03.038.075.07.105.143.15.334.225.524.21.005.015.008.015.011.015.003 0 .006-.015.009-.015a.66.66 0 0 0 .527-.21c.033-.03.048-.075.073-.12l4.426-4.56a.786.786 0 0 0 0-1.08.733.733 0 0 0-1.035 0z"/></svg>